<svg width="126" height="21" viewBox="0 0 126 21" fill="none" xmlns="http://www.w3.org/2000/svg">
<path d="M79.8633 9.71851C79.6049 9.47478 79.2939 9.24505 78.9327 9.03494C79.2036 8.73798 79.4369 8.413 79.6275 8.06001C80.0489 7.26998 80.2621 6.3819 80.2621 5.42098C80.2621 4.40403 80.0238 3.45991 79.5547 2.61946C79.0756 1.7678 78.4109 1.12345 77.5756 0.708821C76.7804 0.322211 75.6767 0.128906 74.2995 0.128906H68.3745V19.9945H75.5512C77.3473 19.9945 78.8122 19.409 79.911 18.2519C81.0222 17.0837 81.5841 15.6297 81.5841 13.932C81.5841 13.0915 81.4311 12.2959 81.1301 11.5759C80.8265 10.8475 80.4026 10.2256 79.8683 9.72131L79.8633 9.71851ZM78.0095 15.2851C77.7562 15.6998 77.4175 16.0079 77.0036 16.2012C76.6876 16.3497 76.0304 16.529 74.6908 16.529H71.4725V11.2425H73.5921C75.2176 11.2425 75.9651 11.349 76.3013 11.433C76.9685 11.6151 77.4928 11.9429 77.8565 12.408C78.2127 12.8674 78.3783 13.3605 78.3783 13.9628C78.3783 14.4419 78.2529 14.8873 78.0045 15.2879L78.0095 15.2851ZM76.7327 6.62563C76.5095 6.98703 76.1984 7.25878 75.8146 7.43247C75.5111 7.56694 74.884 7.72663 73.6072 7.72663H71.475V3.59439H74.5604C75.4986 3.59439 76.1909 3.77368 76.5647 4.11267C76.9058 4.42644 77.0664 4.84106 77.0664 5.42098C77.0664 5.86082 76.9535 6.26704 76.7327 6.62563Z" fill="white"/>
<path d="M86.2301 6.31616C84.4969 7.63007 83.7419 9.86849 83.5713 12.1097C83.4208 14.1156 83.5137 16.1551 83.5137 18.1638C83.5137 18.231 83.5137 19.7719 83.5137 19.7719H86.4107V14.7179C86.4107 13.0986 86.2753 10.9863 87.1858 9.59674C87.7451 8.74228 88.5403 8.49014 89.4357 8.74227C89.6866 8.81231 89.9399 8.87115 90.1882 8.94118L91.633 6.33017L90.9934 5.92955C89.7016 5.1003 87.8756 5.07228 86.2301 6.31896V6.31616Z" fill="white"/>
<path d="M108.867 1.24115C108.503 1.64737 108.312 2.16285 108.312 2.73996C108.312 3.31707 108.503 3.84096 108.864 4.24718C109.228 4.659 109.695 4.87472 110.214 4.87472C110.733 4.87472 111.192 4.659 111.561 4.24998C111.929 3.84096 112.125 3.31707 112.125 2.73716C112.125 2.15724 111.929 1.63896 111.561 1.23554C110.838 0.43711 109.587 0.43711 108.867 1.23554V1.24115Z" fill="white"/>
<path d="M111.654 6.87891H108.787V19.99H111.654V6.87891Z" fill="white"/>
<path d="M125.478 8.61928C124.971 7.29416 123.998 6.33043 122.611 5.78974C122.072 5.57963 120.762 5.48438 120.762 5.48438C120.373 5.48438 119.997 5.50959 119.631 5.56282C118.322 5.75332 117.065 6.36966 116.202 7.48466C115.256 8.70612 114.923 10.1517 114.808 11.2723C114.73 11.7822 114.747 19.9991 114.747 19.9991H117.622V14.5865C117.622 12.6114 117.619 12.4013 117.674 11.4376C117.722 10.6504 117.996 9.87436 118.487 9.46534C119.044 9.00589 119.664 8.73134 120.381 8.67251C120.985 8.62488 121.705 8.75095 122.297 9.17678C122.48 9.30845 122.867 9.83514 122.997 10.4655C123.062 10.7596 123.143 11.4712 123.143 13.1942V19.9963H126V12.7235C126 10.8717 125.829 9.52977 125.48 8.61648L125.478 8.61928Z" fill="white"/>
<path d="M11.0448 12.1517L1.89891 0.39087L1.63301 0.0546875H0V20.0015H3.43911V8.06704L12.743 20.0015H14.3986V0.0546875H11.0448V12.1517Z" fill="white"/>
<path d="M16.2549 20.0015H27.7328V16.2447H19.631V11.1655H25.9244V7.4451H19.631V3.79752H27.798V0.0546875H16.2549V20.0015Z" fill="white"/>
<path d="M56.935 11.37C57.231 11.2664 57.5421 11.1375 57.8632 10.9778C58.7938 10.5128 59.5213 9.82359 60.0255 8.9215C60.5246 8.02781 60.778 6.98565 60.778 5.81742C60.778 4.41385 60.4067 3.2036 59.6718 2.22026C58.9468 1.25094 57.9986 0.609389 56.8573 0.320832C56.1424 0.138733 54.9258 0.0546875 53.0243 0.0546875H48.5342V20.0015H51.9081V11.639H53.0294L57.6399 20.0015H61.6911L56.9325 11.3728L56.935 11.37ZM57.3264 5.81461C57.3264 6.25445 57.2335 6.62145 57.0354 6.96884C56.8497 7.29662 56.6014 7.51794 56.2552 7.66922C55.9718 7.79249 55.3848 7.94097 54.2008 7.94097L51.9056 7.92416V3.78631H54.2585C55.5529 3.78631 56.0872 3.9404 56.2904 4.03565C56.5989 4.17572 56.8347 4.39704 57.0329 4.72762C57.231 5.061 57.3238 5.40839 57.3238 5.81742L57.3264 5.81461Z" fill="white"/>
<path d="M37.4635 0L29.022 19.9468H32.7799L34.8721 15.0021H40.1026L38.6777 11.5002H36.3547L38.2161 7.10746L43.6373 19.9468H47.2999L38.9787 0H37.4635Z" fill="white"/>
<path d="M105.69 12.6549C105.69 11.03 105.101 9.02128 103.937 7.61492C102.673 6.06568 101.06 5.28125 99.1439 5.28125C97.2275 5.28125 95.6172 6.07128 94.348 7.63173C93.2092 9.04649 92.6323 10.7358 92.6323 12.6549C92.6323 14.5739 93.2418 16.3024 94.4433 17.7424C95.6573 19.1992 97.2426 19.9388 99.1965 19.9388H99.2041C100.666 19.8043 101.86 19.3281 102.773 18.5268V20.0004H105.545L105.675 19.3897C105.701 19.2636 105.688 19.1992 105.693 12.6577L105.69 12.6549ZM99.2567 16.9748C97.1121 16.9748 95.3739 15.0333 95.3739 12.638C95.3739 10.2427 97.1121 8.30129 99.2567 8.30129C101.401 8.30129 102.721 10.2427 102.721 12.638C102.721 15.0333 101.401 16.9748 99.2567 16.9748Z" fill="white"/>
</svg>
